<svg width="100" height="100" viewBox="0 0 100 100" fill="none" xmlns="http://www.w3.org/2000/svg">
<g clip-path="url(#clip0_1_2)">
<mask id="mask0_1_2" style="mask-type:luminance" maskUnits="userSpaceOnUse" x="0" y="0" width="100" height="100">
<path d="M75 0H25C11.1929 0 0 11.1929 0 25V75C0 88.8071 11.1929 100 25 100H75C88.8071 100 100 88.8071 100 75V25C100 11.1929 88.8071 0 75 0Z" fill="white"/>
</mask>
<g mask="url(#mask0_1_2)">
<path d="M100 0H0V100H100V0Z" fill="url(#paint0_linear_1_2)"/>
<path d="M81.6008 40.4581C80.2693 33.9078 75.5743 30.2474 71.9654 29.3717C62.4175 27.0599 57.0918 35.3089 49.8036 36.0444C41.3597 36.8852 30.813 35.5191 24.2959 38.8993C19.9512 41.1586 16.3247 46.2903 18.5146 54.8895C22.3688 70.039 40.2907 79.3916 59.3868 73.8572C75.189 69.2685 84.5968 55.3798 81.5833 40.4581H81.6008ZM30.34 52.6827C28.6231 53.033 26.9413 51.9122 26.5909 50.1959C26.2405 48.4793 27.3618 46.798 29.0786 46.4478C30.7955 46.0975 32.4773 47.2182 32.8277 48.9349C33.1781 50.6512 32.0569 52.3324 30.34 52.6827ZM53.9032 67.272C46.37 68.7954 39.0118 64.1368 37.085 56.7986C36.9622 56.3605 37.26 55.9228 37.7154 55.8178L40.4311 55.2748C40.8339 55.1873 41.2543 55.4322 41.3597 55.8353C42.7611 60.8617 47.824 64.0493 53.0272 62.9986C58.2304 61.9475 61.6818 57.0611 61.0161 51.8772C60.9632 51.4741 61.2436 51.0889 61.6643 51.0014L64.3797 50.4584C64.8175 50.3709 65.2732 50.6686 65.3432 51.1064C66.4293 58.6199 61.454 65.7656 53.9207 67.2895L53.9032 67.272ZM69.25 44.8189C67.5329 45.1692 65.8511 44.0485 65.5007 42.3318C65.1504 40.6155 66.2718 38.9343 67.9886 38.584C69.7054 38.2337 71.3872 39.3545 71.7375 41.0711C72.0879 42.7874 70.9668 44.4687 69.25 44.8189Z" fill="white"/>
</g>
</g>
<defs>
<linearGradient id="paint0_linear_1_2" x1="50" y1="0" x2="50" y2="100" gradientUnits="userSpaceOnUse">
<stop stop-color="#29BAFF"/>
<stop offset="1" stop-color="#9F43F6"/>
</linearGradient>
<clipPath id="clip0_1_2">
<rect width="100" height="100" fill="white"/>
</clipPath>
</defs>
</svg>
